G75*
%MOIN*%
%OFA0B0*%
%FSLAX25Y25*%
%IPPOS*%
%LPD*%
%AMOC8*
5,1,8,0,0,1.08239X$1,22.5*
%
%ADD10C,0.00400*%
%ADD11C,0.00300*%
%ADD12R,0.20000X0.10000*%
%ADD13C,0.00500*%
%ADD14C,0.00800*%
%ADD15C,0.00600*%
%ADD16C,0.00000*%
D10*
X0040200Y0015200D02*
X0040200Y0019804D01*
X0042502Y0019804D01*
X0043269Y0019037D01*
X0043269Y0015967D01*
X0042502Y0015200D01*
X0040200Y0015200D01*
X0044804Y0015200D02*
X0047873Y0015200D01*
X0049408Y0015200D02*
X0052477Y0015200D01*
X0054012Y0015200D02*
X0057081Y0015200D01*
X0054012Y0015200D02*
X0054012Y0019804D01*
X0057081Y0019804D01*
X0058616Y0019804D02*
X0061685Y0019804D01*
X0063220Y0019804D02*
X0063220Y0015200D01*
X0066289Y0015200D01*
X0064754Y0017502D02*
X0063220Y0017502D01*
X0063220Y0019804D02*
X0066289Y0019804D01*
X0060150Y0019804D02*
X0060150Y0015200D01*
X0055546Y0017502D02*
X0054012Y0017502D01*
X0049408Y0019804D02*
X0049408Y0015200D01*
X0046339Y0017502D02*
X0044804Y0017502D01*
X0044804Y0019804D02*
X0044804Y0015200D01*
X0044804Y0019804D02*
X0047873Y0019804D01*
X0095200Y0019037D02*
X0095200Y0018269D01*
X0095967Y0017502D01*
X0097502Y0017502D01*
X0098269Y0016735D01*
X0098269Y0015967D01*
X0097502Y0015200D01*
X0095967Y0015200D01*
X0095200Y0015967D01*
X0099804Y0015200D02*
X0099804Y0018269D01*
X0101339Y0019804D01*
X0102873Y0018269D01*
X0102873Y0015200D01*
X0104408Y0016735D02*
X0105942Y0015200D01*
X0107477Y0016735D01*
X0107477Y0019804D01*
X0109012Y0019804D02*
X0109012Y0015200D01*
X0112081Y0015200D01*
X0110546Y0017502D02*
X0109012Y0017502D01*
X0104408Y0016735D02*
X0104408Y0019804D01*
X0109012Y0019804D02*
X0112081Y0019804D01*
X0102873Y0017502D02*
X0099804Y0017502D01*
X0098269Y0019037D02*
X0097502Y0019804D01*
X0095967Y0019804D01*
X0095200Y0019037D01*
X0145200Y0019804D02*
X0148269Y0019804D01*
X0146735Y0019804D02*
X0146735Y0015200D01*
X0149804Y0015200D02*
X0149804Y0019804D01*
X0152106Y0019804D01*
X0152873Y0019037D01*
X0152873Y0017502D01*
X0152106Y0016735D01*
X0149804Y0016735D01*
X0151339Y0016735D02*
X0152873Y0015200D01*
X0154408Y0015200D02*
X0154408Y0018269D01*
X0155942Y0019804D01*
X0157477Y0018269D01*
X0157477Y0015200D01*
X0159012Y0015200D02*
X0160546Y0015200D01*
X0159779Y0015200D02*
X0159779Y0019804D01*
X0159012Y0019804D02*
X0160546Y0019804D01*
X0162081Y0019804D02*
X0165150Y0015200D01*
X0165150Y0019804D01*
X0162081Y0019804D02*
X0162081Y0015200D01*
X0157477Y0017502D02*
X0154408Y0017502D01*
X0195200Y0018269D02*
X0195967Y0017502D01*
X0197502Y0017502D01*
X0198269Y0016735D01*
X0198269Y0015967D01*
X0197502Y0015200D01*
X0195967Y0015200D01*
X0195200Y0015967D01*
X0199804Y0015200D02*
X0199804Y0019804D01*
X0198269Y0019037D02*
X0197502Y0019804D01*
X0195967Y0019804D01*
X0195200Y0019037D01*
X0195200Y0018269D01*
X0199804Y0017502D02*
X0202873Y0017502D01*
X0204408Y0019037D02*
X0204408Y0015967D01*
X0205175Y0015200D01*
X0206710Y0015200D01*
X0207477Y0015967D01*
X0207477Y0019037D01*
X0206710Y0019804D01*
X0205175Y0019804D01*
X0204408Y0019037D01*
X0202873Y0019804D02*
X0202873Y0015200D01*
X0209012Y0015200D02*
X0210546Y0016735D01*
X0212081Y0015200D01*
X0212081Y0019804D01*
X0209012Y0019804D02*
X0209012Y0015200D01*
X0248265Y0040967D02*
X0249033Y0040200D01*
X0249800Y0040967D01*
X0249800Y0043269D01*
X0247498Y0043269D01*
X0246731Y0042502D01*
X0246731Y0040967D01*
X0248265Y0040967D02*
X0248265Y0043269D01*
X0249033Y0044804D02*
X0246731Y0044804D01*
X0249033Y0044804D02*
X0249800Y0045571D01*
X0249800Y0047873D01*
X0246731Y0047873D01*
X0246731Y0049408D02*
X0246731Y0050942D01*
X0245963Y0050175D02*
X0249033Y0050175D01*
X0249800Y0050942D01*
X0249033Y0052477D02*
X0247498Y0052477D01*
X0246731Y0053244D01*
X0246731Y0054779D01*
X0247498Y0055546D01*
X0249033Y0055546D01*
X0249800Y0054779D01*
X0249800Y0053244D01*
X0249033Y0052477D01*
X0249800Y0057081D02*
X0246731Y0057081D01*
X0246731Y0057848D01*
X0247498Y0058616D01*
X0246731Y0059383D01*
X0247498Y0060150D01*
X0249800Y0060150D01*
X0249800Y0058616D02*
X0247498Y0058616D01*
X0249033Y0061685D02*
X0248265Y0062452D01*
X0248265Y0064754D01*
X0247498Y0064754D02*
X0249800Y0064754D01*
X0249800Y0062452D01*
X0249033Y0061685D01*
X0246731Y0062452D02*
X0246731Y0063987D01*
X0247498Y0064754D01*
X0246731Y0066289D02*
X0246731Y0067824D01*
X0245963Y0067056D02*
X0249033Y0067056D01*
X0249800Y0067824D01*
X0249033Y0069358D02*
X0247498Y0069358D01*
X0246731Y0070125D01*
X0246731Y0071660D01*
X0247498Y0072427D01*
X0249033Y0072427D01*
X0249800Y0071660D01*
X0249800Y0070125D01*
X0249033Y0069358D01*
X0249033Y0073962D02*
X0249033Y0074729D01*
X0249800Y0074729D01*
X0249800Y0073962D01*
X0249033Y0073962D01*
X0247498Y0076264D02*
X0247498Y0077799D01*
X0245963Y0077031D02*
X0245196Y0077799D01*
X0245963Y0077031D02*
X0249800Y0077031D01*
X0249033Y0079333D02*
X0248265Y0080101D01*
X0248265Y0082403D01*
X0247498Y0082403D02*
X0249800Y0082403D01*
X0249800Y0080101D01*
X0249033Y0079333D01*
X0246731Y0080101D02*
X0246731Y0081635D01*
X0247498Y0082403D01*
X0246731Y0083937D02*
X0249800Y0083937D01*
X0248265Y0083937D02*
X0246731Y0085472D01*
X0246731Y0086239D01*
X0246731Y0087774D02*
X0246731Y0088541D01*
X0247498Y0089309D01*
X0246731Y0090076D01*
X0247498Y0090843D01*
X0249800Y0090843D01*
X0249800Y0089309D02*
X0247498Y0089309D01*
X0246731Y0087774D02*
X0249800Y0087774D01*
D11*
X0120945Y0083236D02*
X0120328Y0083853D01*
X0119094Y0083853D01*
X0118477Y0083236D01*
X0118477Y0080767D01*
X0119094Y0080150D01*
X0120328Y0080150D01*
X0120945Y0080767D01*
X0120945Y0082002D01*
X0119711Y0082002D01*
X0117262Y0083853D02*
X0117262Y0080150D01*
X0114793Y0083853D01*
X0114793Y0080150D01*
X0113572Y0080150D02*
X0112338Y0080150D01*
X0112955Y0080150D02*
X0112955Y0083853D01*
X0112338Y0083853D02*
X0113572Y0083853D01*
X0111124Y0083853D02*
X0111124Y0080150D01*
X0108655Y0083853D01*
X0108655Y0080150D01*
X0107434Y0080150D02*
X0106199Y0080150D01*
X0106817Y0080150D02*
X0106817Y0083853D01*
X0107434Y0083853D02*
X0106199Y0083853D01*
X0104985Y0082619D02*
X0104985Y0080150D01*
X0104985Y0082002D02*
X0102516Y0082002D01*
X0102516Y0082619D02*
X0102516Y0080150D01*
X0101302Y0080150D02*
X0100068Y0081384D01*
X0100685Y0081384D02*
X0098833Y0081384D01*
X0098833Y0080150D02*
X0098833Y0083853D01*
X0100685Y0083853D01*
X0101302Y0083236D01*
X0101302Y0082002D01*
X0100685Y0081384D01*
X0102516Y0082619D02*
X0103751Y0083853D01*
X0104985Y0082619D01*
X0104368Y0086150D02*
X0103133Y0086150D01*
X0102516Y0086767D01*
X0101302Y0086767D02*
X0100685Y0086150D01*
X0099450Y0086150D01*
X0098833Y0086767D01*
X0098833Y0089236D01*
X0099450Y0089853D01*
X0100685Y0089853D01*
X0101302Y0089236D01*
X0101302Y0086767D01*
X0103133Y0088002D02*
X0104368Y0088002D01*
X0104985Y0087384D01*
X0104985Y0086767D01*
X0104368Y0086150D01*
X0107434Y0086150D02*
X0107434Y0089853D01*
X0108668Y0089853D02*
X0106199Y0089853D01*
X0104985Y0089236D02*
X0104368Y0089853D01*
X0103133Y0089853D01*
X0102516Y0089236D01*
X0102516Y0088619D01*
X0103133Y0088002D01*
X0097619Y0088002D02*
X0097002Y0087384D01*
X0095150Y0087384D01*
X0095150Y0086150D02*
X0095150Y0089853D01*
X0097002Y0089853D01*
X0097619Y0089236D01*
X0097619Y0088002D01*
X0097619Y0083853D02*
X0095150Y0083853D01*
X0096384Y0083853D02*
X0096384Y0080150D01*
X0035945Y0080767D02*
X0035945Y0082002D01*
X0034711Y0082002D01*
X0035945Y0083236D02*
X0035328Y0083853D01*
X0034094Y0083853D01*
X0033477Y0083236D01*
X0033477Y0080767D01*
X0034094Y0080150D01*
X0035328Y0080150D01*
X0035945Y0080767D01*
X0032262Y0080150D02*
X0032262Y0083853D01*
X0029793Y0083853D02*
X0032262Y0080150D01*
X0029793Y0080150D02*
X0029793Y0083853D01*
X0028572Y0083853D02*
X0027338Y0083853D01*
X0027955Y0083853D02*
X0027955Y0080150D01*
X0027338Y0080150D02*
X0028572Y0080150D01*
X0026124Y0080150D02*
X0026124Y0083853D01*
X0023655Y0083853D02*
X0026124Y0080150D01*
X0023655Y0080150D02*
X0023655Y0083853D01*
X0022434Y0083853D02*
X0021199Y0083853D01*
X0021817Y0083853D02*
X0021817Y0080150D01*
X0022434Y0080150D02*
X0021199Y0080150D01*
X0019985Y0080150D02*
X0019985Y0082619D01*
X0018751Y0083853D01*
X0017516Y0082619D01*
X0017516Y0080150D01*
X0016302Y0080150D02*
X0015068Y0081384D01*
X0015685Y0081384D02*
X0013833Y0081384D01*
X0013833Y0080150D02*
X0013833Y0083853D01*
X0015685Y0083853D01*
X0016302Y0083236D01*
X0016302Y0082002D01*
X0015685Y0081384D01*
X0017516Y0082002D02*
X0019985Y0082002D01*
X0019985Y0086150D02*
X0017516Y0086150D01*
X0017516Y0089853D01*
X0019985Y0089853D01*
X0018751Y0088002D02*
X0017516Y0088002D01*
X0016302Y0088002D02*
X0015685Y0087384D01*
X0013833Y0087384D01*
X0013833Y0086150D02*
X0013833Y0089853D01*
X0015685Y0089853D01*
X0016302Y0089236D01*
X0016302Y0088002D01*
X0015068Y0087384D02*
X0016302Y0086150D01*
X0012619Y0088002D02*
X0012002Y0087384D01*
X0010150Y0087384D01*
X0010150Y0086150D02*
X0010150Y0089853D01*
X0012002Y0089853D01*
X0012619Y0089236D01*
X0012619Y0088002D01*
X0012619Y0083853D02*
X0010150Y0083853D01*
X0011384Y0083853D02*
X0011384Y0080150D01*
D12*
X0225000Y0090000D03*
D13*
X0088000Y0091000D02*
X0086000Y0091000D01*
X0086000Y0079000D01*
X0088000Y0079000D01*
X0088000Y0077000D01*
X0066000Y0077000D01*
X0065000Y0078000D01*
X0064000Y0077000D01*
X0042000Y0077000D01*
X0042000Y0079000D01*
X0044000Y0079000D01*
X0044000Y0091000D01*
X0042000Y0091000D01*
X0042000Y0093000D01*
X0064000Y0093000D01*
X0065000Y0092000D01*
X0066000Y0093000D01*
X0088000Y0093000D01*
X0088000Y0091000D01*
X0074000Y0089000D02*
X0074000Y0081000D01*
X0056000Y0081000D01*
X0056000Y0089000D01*
X0074000Y0089000D01*
X0063000Y0089000D02*
X0063000Y0081000D01*
X0062000Y0081000D02*
X0062000Y0089000D01*
X0061000Y0089000D02*
X0061000Y0081000D01*
X0060000Y0081000D02*
X0060000Y0089000D01*
X0059000Y0089000D02*
X0059000Y0081000D01*
X0058000Y0081000D02*
X0058000Y0089000D01*
X0057000Y0089000D02*
X0057000Y0081000D01*
X0039087Y0092766D02*
X0036085Y0092766D01*
X0037586Y0092766D02*
X0037586Y0097270D01*
X0036085Y0095768D01*
D14*
X0051071Y0052000D02*
X0059000Y0052000D01*
X0067000Y0048500D02*
X0067000Y0031500D01*
X0059000Y0028000D02*
X0050953Y0028000D01*
X0043000Y0031500D02*
X0043000Y0048500D01*
X0048000Y0040000D02*
X0048002Y0040172D01*
X0048008Y0040343D01*
X0048019Y0040515D01*
X0048034Y0040686D01*
X0048053Y0040857D01*
X0048076Y0041027D01*
X0048103Y0041197D01*
X0048135Y0041366D01*
X0048170Y0041534D01*
X0048210Y0041701D01*
X0048254Y0041867D01*
X0048301Y0042032D01*
X0048353Y0042196D01*
X0048409Y0042358D01*
X0048469Y0042519D01*
X0048533Y0042679D01*
X0048601Y0042837D01*
X0048672Y0042993D01*
X0048747Y0043147D01*
X0048827Y0043300D01*
X0048909Y0043450D01*
X0048996Y0043599D01*
X0049086Y0043745D01*
X0049180Y0043889D01*
X0049277Y0044031D01*
X0049378Y0044170D01*
X0049482Y0044307D01*
X0049589Y0044441D01*
X0049700Y0044572D01*
X0049813Y0044701D01*
X0049930Y0044827D01*
X0050050Y0044950D01*
X0050173Y0045070D01*
X0050299Y0045187D01*
X0050428Y0045300D01*
X0050559Y0045411D01*
X0050693Y0045518D01*
X0050830Y0045622D01*
X0050969Y0045723D01*
X0051111Y0045820D01*
X0051255Y0045914D01*
X0051401Y0046004D01*
X0051550Y0046091D01*
X0051700Y0046173D01*
X0051853Y0046253D01*
X0052007Y0046328D01*
X0052163Y0046399D01*
X0052321Y0046467D01*
X0052481Y0046531D01*
X0052642Y0046591D01*
X0052804Y0046647D01*
X0052968Y0046699D01*
X0053133Y0046746D01*
X0053299Y0046790D01*
X0053466Y0046830D01*
X0053634Y0046865D01*
X0053803Y0046897D01*
X0053973Y0046924D01*
X0054143Y0046947D01*
X0054314Y0046966D01*
X0054485Y0046981D01*
X0054657Y0046992D01*
X0054828Y0046998D01*
X0055000Y0047000D01*
X0055172Y0046998D01*
X0055343Y0046992D01*
X0055515Y0046981D01*
X0055686Y0046966D01*
X0055857Y0046947D01*
X0056027Y0046924D01*
X0056197Y0046897D01*
X0056366Y0046865D01*
X0056534Y0046830D01*
X0056701Y0046790D01*
X0056867Y0046746D01*
X0057032Y0046699D01*
X0057196Y0046647D01*
X0057358Y0046591D01*
X0057519Y0046531D01*
X0057679Y0046467D01*
X0057837Y0046399D01*
X0057993Y0046328D01*
X0058147Y0046253D01*
X0058300Y0046173D01*
X0058450Y0046091D01*
X0058599Y0046004D01*
X0058745Y0045914D01*
X0058889Y0045820D01*
X0059031Y0045723D01*
X0059170Y0045622D01*
X0059307Y0045518D01*
X0059441Y0045411D01*
X0059572Y0045300D01*
X0059701Y0045187D01*
X0059827Y0045070D01*
X0059950Y0044950D01*
X0060070Y0044827D01*
X0060187Y0044701D01*
X0060300Y0044572D01*
X0060411Y0044441D01*
X0060518Y0044307D01*
X0060622Y0044170D01*
X0060723Y0044031D01*
X0060820Y0043889D01*
X0060914Y0043745D01*
X0061004Y0043599D01*
X0061091Y0043450D01*
X0061173Y0043300D01*
X0061253Y0043147D01*
X0061328Y0042993D01*
X0061399Y0042837D01*
X0061467Y0042679D01*
X0061531Y0042519D01*
X0061591Y0042358D01*
X0061647Y0042196D01*
X0061699Y0042032D01*
X0061746Y0041867D01*
X0061790Y0041701D01*
X0061830Y0041534D01*
X0061865Y0041366D01*
X0061897Y0041197D01*
X0061924Y0041027D01*
X0061947Y0040857D01*
X0061966Y0040686D01*
X0061981Y0040515D01*
X0061992Y0040343D01*
X0061998Y0040172D01*
X0062000Y0040000D01*
X0061998Y0039828D01*
X0061992Y0039657D01*
X0061981Y0039485D01*
X0061966Y0039314D01*
X0061947Y0039143D01*
X0061924Y0038973D01*
X0061897Y0038803D01*
X0061865Y0038634D01*
X0061830Y0038466D01*
X0061790Y0038299D01*
X0061746Y0038133D01*
X0061699Y0037968D01*
X0061647Y0037804D01*
X0061591Y0037642D01*
X0061531Y0037481D01*
X0061467Y0037321D01*
X0061399Y0037163D01*
X0061328Y0037007D01*
X0061253Y0036853D01*
X0061173Y0036700D01*
X0061091Y0036550D01*
X0061004Y0036401D01*
X0060914Y0036255D01*
X0060820Y0036111D01*
X0060723Y0035969D01*
X0060622Y0035830D01*
X0060518Y0035693D01*
X0060411Y0035559D01*
X0060300Y0035428D01*
X0060187Y0035299D01*
X0060070Y0035173D01*
X0059950Y0035050D01*
X0059827Y0034930D01*
X0059701Y0034813D01*
X0059572Y0034700D01*
X0059441Y0034589D01*
X0059307Y0034482D01*
X0059170Y0034378D01*
X0059031Y0034277D01*
X0058889Y0034180D01*
X0058745Y0034086D01*
X0058599Y0033996D01*
X0058450Y0033909D01*
X0058300Y0033827D01*
X0058147Y0033747D01*
X0057993Y0033672D01*
X0057837Y0033601D01*
X0057679Y0033533D01*
X0057519Y0033469D01*
X0057358Y0033409D01*
X0057196Y0033353D01*
X0057032Y0033301D01*
X0056867Y0033254D01*
X0056701Y0033210D01*
X0056534Y0033170D01*
X0056366Y0033135D01*
X0056197Y0033103D01*
X0056027Y0033076D01*
X0055857Y0033053D01*
X0055686Y0033034D01*
X0055515Y0033019D01*
X0055343Y0033008D01*
X0055172Y0033002D01*
X0055000Y0033000D01*
X0054828Y0033002D01*
X0054657Y0033008D01*
X0054485Y0033019D01*
X0054314Y0033034D01*
X0054143Y0033053D01*
X0053973Y0033076D01*
X0053803Y0033103D01*
X0053634Y0033135D01*
X0053466Y0033170D01*
X0053299Y0033210D01*
X0053133Y0033254D01*
X0052968Y0033301D01*
X0052804Y0033353D01*
X0052642Y0033409D01*
X0052481Y0033469D01*
X0052321Y0033533D01*
X0052163Y0033601D01*
X0052007Y0033672D01*
X0051853Y0033747D01*
X0051700Y0033827D01*
X0051550Y0033909D01*
X0051401Y0033996D01*
X0051255Y0034086D01*
X0051111Y0034180D01*
X0050969Y0034277D01*
X0050830Y0034378D01*
X0050693Y0034482D01*
X0050559Y0034589D01*
X0050428Y0034700D01*
X0050299Y0034813D01*
X0050173Y0034930D01*
X0050050Y0035050D01*
X0049930Y0035173D01*
X0049813Y0035299D01*
X0049700Y0035428D01*
X0049589Y0035559D01*
X0049482Y0035693D01*
X0049378Y0035830D01*
X0049277Y0035969D01*
X0049180Y0036111D01*
X0049086Y0036255D01*
X0048996Y0036401D01*
X0048909Y0036550D01*
X0048827Y0036700D01*
X0048747Y0036853D01*
X0048672Y0037007D01*
X0048601Y0037163D01*
X0048533Y0037321D01*
X0048469Y0037481D01*
X0048409Y0037642D01*
X0048353Y0037804D01*
X0048301Y0037968D01*
X0048254Y0038133D01*
X0048210Y0038299D01*
X0048170Y0038466D01*
X0048135Y0038634D01*
X0048103Y0038803D01*
X0048076Y0038973D01*
X0048053Y0039143D01*
X0048034Y0039314D01*
X0048019Y0039485D01*
X0048008Y0039657D01*
X0048002Y0039828D01*
X0048000Y0040000D01*
X0093000Y0048500D02*
X0093000Y0031500D01*
X0100953Y0028000D02*
X0109000Y0028000D01*
X0117000Y0031500D02*
X0117000Y0048500D01*
X0109000Y0052000D02*
X0101071Y0052000D01*
X0098000Y0040000D02*
X0098002Y0040172D01*
X0098008Y0040343D01*
X0098019Y0040515D01*
X0098034Y0040686D01*
X0098053Y0040857D01*
X0098076Y0041027D01*
X0098103Y0041197D01*
X0098135Y0041366D01*
X0098170Y0041534D01*
X0098210Y0041701D01*
X0098254Y0041867D01*
X0098301Y0042032D01*
X0098353Y0042196D01*
X0098409Y0042358D01*
X0098469Y0042519D01*
X0098533Y0042679D01*
X0098601Y0042837D01*
X0098672Y0042993D01*
X0098747Y0043147D01*
X0098827Y0043300D01*
X0098909Y0043450D01*
X0098996Y0043599D01*
X0099086Y0043745D01*
X0099180Y0043889D01*
X0099277Y0044031D01*
X0099378Y0044170D01*
X0099482Y0044307D01*
X0099589Y0044441D01*
X0099700Y0044572D01*
X0099813Y0044701D01*
X0099930Y0044827D01*
X0100050Y0044950D01*
X0100173Y0045070D01*
X0100299Y0045187D01*
X0100428Y0045300D01*
X0100559Y0045411D01*
X0100693Y0045518D01*
X0100830Y0045622D01*
X0100969Y0045723D01*
X0101111Y0045820D01*
X0101255Y0045914D01*
X0101401Y0046004D01*
X0101550Y0046091D01*
X0101700Y0046173D01*
X0101853Y0046253D01*
X0102007Y0046328D01*
X0102163Y0046399D01*
X0102321Y0046467D01*
X0102481Y0046531D01*
X0102642Y0046591D01*
X0102804Y0046647D01*
X0102968Y0046699D01*
X0103133Y0046746D01*
X0103299Y0046790D01*
X0103466Y0046830D01*
X0103634Y0046865D01*
X0103803Y0046897D01*
X0103973Y0046924D01*
X0104143Y0046947D01*
X0104314Y0046966D01*
X0104485Y0046981D01*
X0104657Y0046992D01*
X0104828Y0046998D01*
X0105000Y0047000D01*
X0105172Y0046998D01*
X0105343Y0046992D01*
X0105515Y0046981D01*
X0105686Y0046966D01*
X0105857Y0046947D01*
X0106027Y0046924D01*
X0106197Y0046897D01*
X0106366Y0046865D01*
X0106534Y0046830D01*
X0106701Y0046790D01*
X0106867Y0046746D01*
X0107032Y0046699D01*
X0107196Y0046647D01*
X0107358Y0046591D01*
X0107519Y0046531D01*
X0107679Y0046467D01*
X0107837Y0046399D01*
X0107993Y0046328D01*
X0108147Y0046253D01*
X0108300Y0046173D01*
X0108450Y0046091D01*
X0108599Y0046004D01*
X0108745Y0045914D01*
X0108889Y0045820D01*
X0109031Y0045723D01*
X0109170Y0045622D01*
X0109307Y0045518D01*
X0109441Y0045411D01*
X0109572Y0045300D01*
X0109701Y0045187D01*
X0109827Y0045070D01*
X0109950Y0044950D01*
X0110070Y0044827D01*
X0110187Y0044701D01*
X0110300Y0044572D01*
X0110411Y0044441D01*
X0110518Y0044307D01*
X0110622Y0044170D01*
X0110723Y0044031D01*
X0110820Y0043889D01*
X0110914Y0043745D01*
X0111004Y0043599D01*
X0111091Y0043450D01*
X0111173Y0043300D01*
X0111253Y0043147D01*
X0111328Y0042993D01*
X0111399Y0042837D01*
X0111467Y0042679D01*
X0111531Y0042519D01*
X0111591Y0042358D01*
X0111647Y0042196D01*
X0111699Y0042032D01*
X0111746Y0041867D01*
X0111790Y0041701D01*
X0111830Y0041534D01*
X0111865Y0041366D01*
X0111897Y0041197D01*
X0111924Y0041027D01*
X0111947Y0040857D01*
X0111966Y0040686D01*
X0111981Y0040515D01*
X0111992Y0040343D01*
X0111998Y0040172D01*
X0112000Y0040000D01*
X0111998Y0039828D01*
X0111992Y0039657D01*
X0111981Y0039485D01*
X0111966Y0039314D01*
X0111947Y0039143D01*
X0111924Y0038973D01*
X0111897Y0038803D01*
X0111865Y0038634D01*
X0111830Y0038466D01*
X0111790Y0038299D01*
X0111746Y0038133D01*
X0111699Y0037968D01*
X0111647Y0037804D01*
X0111591Y0037642D01*
X0111531Y0037481D01*
X0111467Y0037321D01*
X0111399Y0037163D01*
X0111328Y0037007D01*
X0111253Y0036853D01*
X0111173Y0036700D01*
X0111091Y0036550D01*
X0111004Y0036401D01*
X0110914Y0036255D01*
X0110820Y0036111D01*
X0110723Y0035969D01*
X0110622Y0035830D01*
X0110518Y0035693D01*
X0110411Y0035559D01*
X0110300Y0035428D01*
X0110187Y0035299D01*
X0110070Y0035173D01*
X0109950Y0035050D01*
X0109827Y0034930D01*
X0109701Y0034813D01*
X0109572Y0034700D01*
X0109441Y0034589D01*
X0109307Y0034482D01*
X0109170Y0034378D01*
X0109031Y0034277D01*
X0108889Y0034180D01*
X0108745Y0034086D01*
X0108599Y0033996D01*
X0108450Y0033909D01*
X0108300Y0033827D01*
X0108147Y0033747D01*
X0107993Y0033672D01*
X0107837Y0033601D01*
X0107679Y0033533D01*
X0107519Y0033469D01*
X0107358Y0033409D01*
X0107196Y0033353D01*
X0107032Y0033301D01*
X0106867Y0033254D01*
X0106701Y0033210D01*
X0106534Y0033170D01*
X0106366Y0033135D01*
X0106197Y0033103D01*
X0106027Y0033076D01*
X0105857Y0033053D01*
X0105686Y0033034D01*
X0105515Y0033019D01*
X0105343Y0033008D01*
X0105172Y0033002D01*
X0105000Y0033000D01*
X0104828Y0033002D01*
X0104657Y0033008D01*
X0104485Y0033019D01*
X0104314Y0033034D01*
X0104143Y0033053D01*
X0103973Y0033076D01*
X0103803Y0033103D01*
X0103634Y0033135D01*
X0103466Y0033170D01*
X0103299Y0033210D01*
X0103133Y0033254D01*
X0102968Y0033301D01*
X0102804Y0033353D01*
X0102642Y0033409D01*
X0102481Y0033469D01*
X0102321Y0033533D01*
X0102163Y0033601D01*
X0102007Y0033672D01*
X0101853Y0033747D01*
X0101700Y0033827D01*
X0101550Y0033909D01*
X0101401Y0033996D01*
X0101255Y0034086D01*
X0101111Y0034180D01*
X0100969Y0034277D01*
X0100830Y0034378D01*
X0100693Y0034482D01*
X0100559Y0034589D01*
X0100428Y0034700D01*
X0100299Y0034813D01*
X0100173Y0034930D01*
X0100050Y0035050D01*
X0099930Y0035173D01*
X0099813Y0035299D01*
X0099700Y0035428D01*
X0099589Y0035559D01*
X0099482Y0035693D01*
X0099378Y0035830D01*
X0099277Y0035969D01*
X0099180Y0036111D01*
X0099086Y0036255D01*
X0098996Y0036401D01*
X0098909Y0036550D01*
X0098827Y0036700D01*
X0098747Y0036853D01*
X0098672Y0037007D01*
X0098601Y0037163D01*
X0098533Y0037321D01*
X0098469Y0037481D01*
X0098409Y0037642D01*
X0098353Y0037804D01*
X0098301Y0037968D01*
X0098254Y0038133D01*
X0098210Y0038299D01*
X0098170Y0038466D01*
X0098135Y0038634D01*
X0098103Y0038803D01*
X0098076Y0038973D01*
X0098053Y0039143D01*
X0098034Y0039314D01*
X0098019Y0039485D01*
X0098008Y0039657D01*
X0098002Y0039828D01*
X0098000Y0040000D01*
X0143000Y0048500D02*
X0143000Y0031500D01*
X0150953Y0028000D02*
X0159000Y0028000D01*
X0167000Y0031500D02*
X0167000Y0048500D01*
X0159000Y0052000D02*
X0151071Y0052000D01*
X0148000Y0040000D02*
X0148002Y0040172D01*
X0148008Y0040343D01*
X0148019Y0040515D01*
X0148034Y0040686D01*
X0148053Y0040857D01*
X0148076Y0041027D01*
X0148103Y0041197D01*
X0148135Y0041366D01*
X0148170Y0041534D01*
X0148210Y0041701D01*
X0148254Y0041867D01*
X0148301Y0042032D01*
X0148353Y0042196D01*
X0148409Y0042358D01*
X0148469Y0042519D01*
X0148533Y0042679D01*
X0148601Y0042837D01*
X0148672Y0042993D01*
X0148747Y0043147D01*
X0148827Y0043300D01*
X0148909Y0043450D01*
X0148996Y0043599D01*
X0149086Y0043745D01*
X0149180Y0043889D01*
X0149277Y0044031D01*
X0149378Y0044170D01*
X0149482Y0044307D01*
X0149589Y0044441D01*
X0149700Y0044572D01*
X0149813Y0044701D01*
X0149930Y0044827D01*
X0150050Y0044950D01*
X0150173Y0045070D01*
X0150299Y0045187D01*
X0150428Y0045300D01*
X0150559Y0045411D01*
X0150693Y0045518D01*
X0150830Y0045622D01*
X0150969Y0045723D01*
X0151111Y0045820D01*
X0151255Y0045914D01*
X0151401Y0046004D01*
X0151550Y0046091D01*
X0151700Y0046173D01*
X0151853Y0046253D01*
X0152007Y0046328D01*
X0152163Y0046399D01*
X0152321Y0046467D01*
X0152481Y0046531D01*
X0152642Y0046591D01*
X0152804Y0046647D01*
X0152968Y0046699D01*
X0153133Y0046746D01*
X0153299Y0046790D01*
X0153466Y0046830D01*
X0153634Y0046865D01*
X0153803Y0046897D01*
X0153973Y0046924D01*
X0154143Y0046947D01*
X0154314Y0046966D01*
X0154485Y0046981D01*
X0154657Y0046992D01*
X0154828Y0046998D01*
X0155000Y0047000D01*
X0155172Y0046998D01*
X0155343Y0046992D01*
X0155515Y0046981D01*
X0155686Y0046966D01*
X0155857Y0046947D01*
X0156027Y0046924D01*
X0156197Y0046897D01*
X0156366Y0046865D01*
X0156534Y0046830D01*
X0156701Y0046790D01*
X0156867Y0046746D01*
X0157032Y0046699D01*
X0157196Y0046647D01*
X0157358Y0046591D01*
X0157519Y0046531D01*
X0157679Y0046467D01*
X0157837Y0046399D01*
X0157993Y0046328D01*
X0158147Y0046253D01*
X0158300Y0046173D01*
X0158450Y0046091D01*
X0158599Y0046004D01*
X0158745Y0045914D01*
X0158889Y0045820D01*
X0159031Y0045723D01*
X0159170Y0045622D01*
X0159307Y0045518D01*
X0159441Y0045411D01*
X0159572Y0045300D01*
X0159701Y0045187D01*
X0159827Y0045070D01*
X0159950Y0044950D01*
X0160070Y0044827D01*
X0160187Y0044701D01*
X0160300Y0044572D01*
X0160411Y0044441D01*
X0160518Y0044307D01*
X0160622Y0044170D01*
X0160723Y0044031D01*
X0160820Y0043889D01*
X0160914Y0043745D01*
X0161004Y0043599D01*
X0161091Y0043450D01*
X0161173Y0043300D01*
X0161253Y0043147D01*
X0161328Y0042993D01*
X0161399Y0042837D01*
X0161467Y0042679D01*
X0161531Y0042519D01*
X0161591Y0042358D01*
X0161647Y0042196D01*
X0161699Y0042032D01*
X0161746Y0041867D01*
X0161790Y0041701D01*
X0161830Y0041534D01*
X0161865Y0041366D01*
X0161897Y0041197D01*
X0161924Y0041027D01*
X0161947Y0040857D01*
X0161966Y0040686D01*
X0161981Y0040515D01*
X0161992Y0040343D01*
X0161998Y0040172D01*
X0162000Y0040000D01*
X0161998Y0039828D01*
X0161992Y0039657D01*
X0161981Y0039485D01*
X0161966Y0039314D01*
X0161947Y0039143D01*
X0161924Y0038973D01*
X0161897Y0038803D01*
X0161865Y0038634D01*
X0161830Y0038466D01*
X0161790Y0038299D01*
X0161746Y0038133D01*
X0161699Y0037968D01*
X0161647Y0037804D01*
X0161591Y0037642D01*
X0161531Y0037481D01*
X0161467Y0037321D01*
X0161399Y0037163D01*
X0161328Y0037007D01*
X0161253Y0036853D01*
X0161173Y0036700D01*
X0161091Y0036550D01*
X0161004Y0036401D01*
X0160914Y0036255D01*
X0160820Y0036111D01*
X0160723Y0035969D01*
X0160622Y0035830D01*
X0160518Y0035693D01*
X0160411Y0035559D01*
X0160300Y0035428D01*
X0160187Y0035299D01*
X0160070Y0035173D01*
X0159950Y0035050D01*
X0159827Y0034930D01*
X0159701Y0034813D01*
X0159572Y0034700D01*
X0159441Y0034589D01*
X0159307Y0034482D01*
X0159170Y0034378D01*
X0159031Y0034277D01*
X0158889Y0034180D01*
X0158745Y0034086D01*
X0158599Y0033996D01*
X0158450Y0033909D01*
X0158300Y0033827D01*
X0158147Y0033747D01*
X0157993Y0033672D01*
X0157837Y0033601D01*
X0157679Y0033533D01*
X0157519Y0033469D01*
X0157358Y0033409D01*
X0157196Y0033353D01*
X0157032Y0033301D01*
X0156867Y0033254D01*
X0156701Y0033210D01*
X0156534Y0033170D01*
X0156366Y0033135D01*
X0156197Y0033103D01*
X0156027Y0033076D01*
X0155857Y0033053D01*
X0155686Y0033034D01*
X0155515Y0033019D01*
X0155343Y0033008D01*
X0155172Y0033002D01*
X0155000Y0033000D01*
X0154828Y0033002D01*
X0154657Y0033008D01*
X0154485Y0033019D01*
X0154314Y0033034D01*
X0154143Y0033053D01*
X0153973Y0033076D01*
X0153803Y0033103D01*
X0153634Y0033135D01*
X0153466Y0033170D01*
X0153299Y0033210D01*
X0153133Y0033254D01*
X0152968Y0033301D01*
X0152804Y0033353D01*
X0152642Y0033409D01*
X0152481Y0033469D01*
X0152321Y0033533D01*
X0152163Y0033601D01*
X0152007Y0033672D01*
X0151853Y0033747D01*
X0151700Y0033827D01*
X0151550Y0033909D01*
X0151401Y0033996D01*
X0151255Y0034086D01*
X0151111Y0034180D01*
X0150969Y0034277D01*
X0150830Y0034378D01*
X0150693Y0034482D01*
X0150559Y0034589D01*
X0150428Y0034700D01*
X0150299Y0034813D01*
X0150173Y0034930D01*
X0150050Y0035050D01*
X0149930Y0035173D01*
X0149813Y0035299D01*
X0149700Y0035428D01*
X0149589Y0035559D01*
X0149482Y0035693D01*
X0149378Y0035830D01*
X0149277Y0035969D01*
X0149180Y0036111D01*
X0149086Y0036255D01*
X0148996Y0036401D01*
X0148909Y0036550D01*
X0148827Y0036700D01*
X0148747Y0036853D01*
X0148672Y0037007D01*
X0148601Y0037163D01*
X0148533Y0037321D01*
X0148469Y0037481D01*
X0148409Y0037642D01*
X0148353Y0037804D01*
X0148301Y0037968D01*
X0148254Y0038133D01*
X0148210Y0038299D01*
X0148170Y0038466D01*
X0148135Y0038634D01*
X0148103Y0038803D01*
X0148076Y0038973D01*
X0148053Y0039143D01*
X0148034Y0039314D01*
X0148019Y0039485D01*
X0148008Y0039657D01*
X0148002Y0039828D01*
X0148000Y0040000D01*
X0193000Y0048500D02*
X0193000Y0031500D01*
X0200953Y0028000D02*
X0209000Y0028000D01*
X0217000Y0031500D02*
X0217000Y0048500D01*
X0209000Y0052000D02*
X0201071Y0052000D01*
X0198000Y0040000D02*
X0198002Y0040172D01*
X0198008Y0040343D01*
X0198019Y0040515D01*
X0198034Y0040686D01*
X0198053Y0040857D01*
X0198076Y0041027D01*
X0198103Y0041197D01*
X0198135Y0041366D01*
X0198170Y0041534D01*
X0198210Y0041701D01*
X0198254Y0041867D01*
X0198301Y0042032D01*
X0198353Y0042196D01*
X0198409Y0042358D01*
X0198469Y0042519D01*
X0198533Y0042679D01*
X0198601Y0042837D01*
X0198672Y0042993D01*
X0198747Y0043147D01*
X0198827Y0043300D01*
X0198909Y0043450D01*
X0198996Y0043599D01*
X0199086Y0043745D01*
X0199180Y0043889D01*
X0199277Y0044031D01*
X0199378Y0044170D01*
X0199482Y0044307D01*
X0199589Y0044441D01*
X0199700Y0044572D01*
X0199813Y0044701D01*
X0199930Y0044827D01*
X0200050Y0044950D01*
X0200173Y0045070D01*
X0200299Y0045187D01*
X0200428Y0045300D01*
X0200559Y0045411D01*
X0200693Y0045518D01*
X0200830Y0045622D01*
X0200969Y0045723D01*
X0201111Y0045820D01*
X0201255Y0045914D01*
X0201401Y0046004D01*
X0201550Y0046091D01*
X0201700Y0046173D01*
X0201853Y0046253D01*
X0202007Y0046328D01*
X0202163Y0046399D01*
X0202321Y0046467D01*
X0202481Y0046531D01*
X0202642Y0046591D01*
X0202804Y0046647D01*
X0202968Y0046699D01*
X0203133Y0046746D01*
X0203299Y0046790D01*
X0203466Y0046830D01*
X0203634Y0046865D01*
X0203803Y0046897D01*
X0203973Y0046924D01*
X0204143Y0046947D01*
X0204314Y0046966D01*
X0204485Y0046981D01*
X0204657Y0046992D01*
X0204828Y0046998D01*
X0205000Y0047000D01*
X0205172Y0046998D01*
X0205343Y0046992D01*
X0205515Y0046981D01*
X0205686Y0046966D01*
X0205857Y0046947D01*
X0206027Y0046924D01*
X0206197Y0046897D01*
X0206366Y0046865D01*
X0206534Y0046830D01*
X0206701Y0046790D01*
X0206867Y0046746D01*
X0207032Y0046699D01*
X0207196Y0046647D01*
X0207358Y0046591D01*
X0207519Y0046531D01*
X0207679Y0046467D01*
X0207837Y0046399D01*
X0207993Y0046328D01*
X0208147Y0046253D01*
X0208300Y0046173D01*
X0208450Y0046091D01*
X0208599Y0046004D01*
X0208745Y0045914D01*
X0208889Y0045820D01*
X0209031Y0045723D01*
X0209170Y0045622D01*
X0209307Y0045518D01*
X0209441Y0045411D01*
X0209572Y0045300D01*
X0209701Y0045187D01*
X0209827Y0045070D01*
X0209950Y0044950D01*
X0210070Y0044827D01*
X0210187Y0044701D01*
X0210300Y0044572D01*
X0210411Y0044441D01*
X0210518Y0044307D01*
X0210622Y0044170D01*
X0210723Y0044031D01*
X0210820Y0043889D01*
X0210914Y0043745D01*
X0211004Y0043599D01*
X0211091Y0043450D01*
X0211173Y0043300D01*
X0211253Y0043147D01*
X0211328Y0042993D01*
X0211399Y0042837D01*
X0211467Y0042679D01*
X0211531Y0042519D01*
X0211591Y0042358D01*
X0211647Y0042196D01*
X0211699Y0042032D01*
X0211746Y0041867D01*
X0211790Y0041701D01*
X0211830Y0041534D01*
X0211865Y0041366D01*
X0211897Y0041197D01*
X0211924Y0041027D01*
X0211947Y0040857D01*
X0211966Y0040686D01*
X0211981Y0040515D01*
X0211992Y0040343D01*
X0211998Y0040172D01*
X0212000Y0040000D01*
X0211998Y0039828D01*
X0211992Y0039657D01*
X0211981Y0039485D01*
X0211966Y0039314D01*
X0211947Y0039143D01*
X0211924Y0038973D01*
X0211897Y0038803D01*
X0211865Y0038634D01*
X0211830Y0038466D01*
X0211790Y0038299D01*
X0211746Y0038133D01*
X0211699Y0037968D01*
X0211647Y0037804D01*
X0211591Y0037642D01*
X0211531Y0037481D01*
X0211467Y0037321D01*
X0211399Y0037163D01*
X0211328Y0037007D01*
X0211253Y0036853D01*
X0211173Y0036700D01*
X0211091Y0036550D01*
X0211004Y0036401D01*
X0210914Y0036255D01*
X0210820Y0036111D01*
X0210723Y0035969D01*
X0210622Y0035830D01*
X0210518Y0035693D01*
X0210411Y0035559D01*
X0210300Y0035428D01*
X0210187Y0035299D01*
X0210070Y0035173D01*
X0209950Y0035050D01*
X0209827Y0034930D01*
X0209701Y0034813D01*
X0209572Y0034700D01*
X0209441Y0034589D01*
X0209307Y0034482D01*
X0209170Y0034378D01*
X0209031Y0034277D01*
X0208889Y0034180D01*
X0208745Y0034086D01*
X0208599Y0033996D01*
X0208450Y0033909D01*
X0208300Y0033827D01*
X0208147Y0033747D01*
X0207993Y0033672D01*
X0207837Y0033601D01*
X0207679Y0033533D01*
X0207519Y0033469D01*
X0207358Y0033409D01*
X0207196Y0033353D01*
X0207032Y0033301D01*
X0206867Y0033254D01*
X0206701Y0033210D01*
X0206534Y0033170D01*
X0206366Y0033135D01*
X0206197Y0033103D01*
X0206027Y0033076D01*
X0205857Y0033053D01*
X0205686Y0033034D01*
X0205515Y0033019D01*
X0205343Y0033008D01*
X0205172Y0033002D01*
X0205000Y0033000D01*
X0204828Y0033002D01*
X0204657Y0033008D01*
X0204485Y0033019D01*
X0204314Y0033034D01*
X0204143Y0033053D01*
X0203973Y0033076D01*
X0203803Y0033103D01*
X0203634Y0033135D01*
X0203466Y0033170D01*
X0203299Y0033210D01*
X0203133Y0033254D01*
X0202968Y0033301D01*
X0202804Y0033353D01*
X0202642Y0033409D01*
X0202481Y0033469D01*
X0202321Y0033533D01*
X0202163Y0033601D01*
X0202007Y0033672D01*
X0201853Y0033747D01*
X0201700Y0033827D01*
X0201550Y0033909D01*
X0201401Y0033996D01*
X0201255Y0034086D01*
X0201111Y0034180D01*
X0200969Y0034277D01*
X0200830Y0034378D01*
X0200693Y0034482D01*
X0200559Y0034589D01*
X0200428Y0034700D01*
X0200299Y0034813D01*
X0200173Y0034930D01*
X0200050Y0035050D01*
X0199930Y0035173D01*
X0199813Y0035299D01*
X0199700Y0035428D01*
X0199589Y0035559D01*
X0199482Y0035693D01*
X0199378Y0035830D01*
X0199277Y0035969D01*
X0199180Y0036111D01*
X0199086Y0036255D01*
X0198996Y0036401D01*
X0198909Y0036550D01*
X0198827Y0036700D01*
X0198747Y0036853D01*
X0198672Y0037007D01*
X0198601Y0037163D01*
X0198533Y0037321D01*
X0198469Y0037481D01*
X0198409Y0037642D01*
X0198353Y0037804D01*
X0198301Y0037968D01*
X0198254Y0038133D01*
X0198210Y0038299D01*
X0198170Y0038466D01*
X0198135Y0038634D01*
X0198103Y0038803D01*
X0198076Y0038973D01*
X0198053Y0039143D01*
X0198034Y0039314D01*
X0198019Y0039485D01*
X0198008Y0039657D01*
X0198002Y0039828D01*
X0198000Y0040000D01*
D15*
X0203819Y0057638D02*
X0206181Y0057638D01*
X0206181Y0062362D02*
X0203819Y0062362D01*
X0156181Y0062362D02*
X0153819Y0062362D01*
X0153819Y0057638D02*
X0156181Y0057638D01*
X0106181Y0057638D02*
X0103819Y0057638D01*
X0103819Y0062362D02*
X0106181Y0062362D01*
X0056181Y0062362D02*
X0053819Y0062362D01*
X0053819Y0057638D02*
X0056181Y0057638D01*
X0056181Y0067638D02*
X0053819Y0067638D01*
X0053819Y0072362D02*
X0056181Y0072362D01*
X0055335Y0099016D02*
X0052835Y0101516D01*
X0050335Y0099016D01*
X0045335Y0099016D01*
X0042835Y0101516D01*
X0040335Y0099016D01*
X0035335Y0099016D01*
X0032835Y0101516D01*
X0032835Y0116516D01*
X0035335Y0119016D01*
X0040335Y0119016D01*
X0042835Y0116516D01*
X0045335Y0119016D01*
X0050335Y0119016D01*
X0052835Y0116516D01*
X0055335Y0119016D01*
X0060335Y0119016D01*
X0062835Y0116516D01*
X0065335Y0119016D01*
X0070335Y0119016D01*
X0072835Y0116516D01*
X0075335Y0119016D01*
X0080335Y0119016D01*
X0082835Y0116516D01*
X0085335Y0119016D01*
X0090335Y0119016D01*
X0092835Y0116516D01*
X0095335Y0119016D01*
X0100335Y0119016D01*
X0102835Y0116516D01*
X0105335Y0119016D01*
X0110335Y0119016D01*
X0112835Y0116516D01*
X0115335Y0119016D01*
X0120335Y0119016D01*
X0122835Y0116516D01*
X0125335Y0119016D01*
X0130335Y0119016D01*
X0132835Y0116516D01*
X0135335Y0119016D01*
X0140335Y0119016D01*
X0142835Y0116516D01*
X0145335Y0119016D01*
X0150335Y0119016D01*
X0152835Y0116516D01*
X0155335Y0119016D01*
X0160335Y0119016D01*
X0162835Y0116516D01*
X0165335Y0119016D01*
X0170335Y0119016D01*
X0172835Y0116516D01*
X0175335Y0119016D01*
X0180335Y0119016D01*
X0182835Y0116516D01*
X0185335Y0119016D01*
X0190335Y0119016D01*
X0192835Y0116516D01*
X0195335Y0119016D01*
X0200335Y0119016D01*
X0202835Y0116516D01*
X0205335Y0119016D01*
X0210335Y0119016D01*
X0212835Y0116516D01*
X0215335Y0119016D01*
X0220335Y0119016D01*
X0222835Y0116516D01*
X0225335Y0119016D01*
X0230335Y0119016D01*
X0232835Y0116516D01*
X0232835Y0101516D01*
X0230335Y0099016D01*
X0225335Y0099016D01*
X0222835Y0101516D01*
X0220335Y0099016D01*
X0215335Y0099016D01*
X0212835Y0101516D01*
X0210335Y0099016D01*
X0205335Y0099016D01*
X0202835Y0101516D01*
X0200335Y0099016D01*
X0195335Y0099016D01*
X0192835Y0101516D01*
X0190335Y0099016D01*
X0185335Y0099016D01*
X0182835Y0101516D01*
X0180335Y0099016D01*
X0175335Y0099016D01*
X0172835Y0101516D01*
X0170335Y0099016D01*
X0165335Y0099016D01*
X0162835Y0101516D01*
X0160335Y0099016D01*
X0155335Y0099016D01*
X0152835Y0101516D01*
X0150335Y0099016D01*
X0145335Y0099016D01*
X0142835Y0101516D01*
X0140335Y0099016D01*
X0135335Y0099016D01*
X0132835Y0101516D01*
X0130335Y0099016D01*
X0125335Y0099016D01*
X0122835Y0101516D01*
X0120335Y0099016D01*
X0115335Y0099016D01*
X0112835Y0101516D01*
X0110335Y0099016D01*
X0105335Y0099016D01*
X0102835Y0101516D01*
X0100335Y0099016D01*
X0095335Y0099016D01*
X0092835Y0101516D01*
X0090335Y0099016D01*
X0085335Y0099016D01*
X0082835Y0101516D01*
X0080335Y0099016D01*
X0075335Y0099016D01*
X0072835Y0101516D01*
X0070335Y0099016D01*
X0065335Y0099016D01*
X0062835Y0101516D01*
X0060335Y0099016D01*
X0055335Y0099016D01*
D16*
X0016811Y0005000D02*
X0249094Y0005000D01*
X0249379Y0005003D01*
X0249665Y0005014D01*
X0249950Y0005031D01*
X0250234Y0005055D01*
X0250518Y0005086D01*
X0250801Y0005124D01*
X0251082Y0005169D01*
X0251363Y0005220D01*
X0251643Y0005278D01*
X0251921Y0005343D01*
X0252197Y0005415D01*
X0252471Y0005493D01*
X0252744Y0005578D01*
X0253014Y0005670D01*
X0253282Y0005768D01*
X0253548Y0005872D01*
X0253811Y0005983D01*
X0254071Y0006100D01*
X0254329Y0006223D01*
X0254583Y0006353D01*
X0254834Y0006489D01*
X0255082Y0006630D01*
X0255326Y0006778D01*
X0255567Y0006931D01*
X0255803Y0007091D01*
X0256036Y0007256D01*
X0256265Y0007426D01*
X0256490Y0007602D01*
X0256710Y0007784D01*
X0256926Y0007970D01*
X0257137Y0008162D01*
X0257344Y0008359D01*
X0257546Y0008561D01*
X0257743Y0008768D01*
X0257935Y0008979D01*
X0258121Y0009195D01*
X0258303Y0009415D01*
X0258479Y0009640D01*
X0258649Y0009869D01*
X0258814Y0010102D01*
X0258974Y0010338D01*
X0259127Y0010579D01*
X0259275Y0010823D01*
X0259416Y0011071D01*
X0259552Y0011322D01*
X0259682Y0011576D01*
X0259805Y0011834D01*
X0259922Y0012094D01*
X0260033Y0012357D01*
X0260137Y0012623D01*
X0260235Y0012891D01*
X0260327Y0013161D01*
X0260412Y0013434D01*
X0260490Y0013708D01*
X0260562Y0013984D01*
X0260627Y0014262D01*
X0260685Y0014542D01*
X0260736Y0014823D01*
X0260781Y0015104D01*
X0260819Y0015387D01*
X0260850Y0015671D01*
X0260874Y0015955D01*
X0260891Y0016240D01*
X0260902Y0016526D01*
X0260905Y0016811D01*
X0260906Y0016811D02*
X0260906Y0111299D01*
X0260905Y0111299D02*
X0260902Y0111584D01*
X0260891Y0111870D01*
X0260874Y0112155D01*
X0260850Y0112439D01*
X0260819Y0112723D01*
X0260781Y0113006D01*
X0260736Y0113287D01*
X0260685Y0113568D01*
X0260627Y0113848D01*
X0260562Y0114126D01*
X0260490Y0114402D01*
X0260412Y0114676D01*
X0260327Y0114949D01*
X0260235Y0115219D01*
X0260137Y0115487D01*
X0260033Y0115753D01*
X0259922Y0116016D01*
X0259805Y0116276D01*
X0259682Y0116534D01*
X0259552Y0116788D01*
X0259416Y0117039D01*
X0259275Y0117287D01*
X0259127Y0117531D01*
X0258974Y0117772D01*
X0258814Y0118008D01*
X0258649Y0118241D01*
X0258479Y0118470D01*
X0258303Y0118695D01*
X0258121Y0118915D01*
X0257935Y0119131D01*
X0257743Y0119342D01*
X0257546Y0119549D01*
X0257344Y0119751D01*
X0257137Y0119948D01*
X0256926Y0120140D01*
X0256710Y0120326D01*
X0256490Y0120508D01*
X0256265Y0120684D01*
X0256036Y0120854D01*
X0255803Y0121019D01*
X0255567Y0121179D01*
X0255326Y0121332D01*
X0255082Y0121480D01*
X0254834Y0121621D01*
X0254583Y0121757D01*
X0254329Y0121887D01*
X0254071Y0122010D01*
X0253811Y0122127D01*
X0253548Y0122238D01*
X0253282Y0122342D01*
X0253014Y0122440D01*
X0252744Y0122532D01*
X0252471Y0122617D01*
X0252197Y0122695D01*
X0251921Y0122767D01*
X0251643Y0122832D01*
X0251363Y0122890D01*
X0251082Y0122941D01*
X0250801Y0122986D01*
X0250518Y0123024D01*
X0250234Y0123055D01*
X0249950Y0123079D01*
X0249665Y0123096D01*
X0249379Y0123107D01*
X0249094Y0123110D01*
X0016811Y0123110D01*
X0016526Y0123107D01*
X0016240Y0123096D01*
X0015955Y0123079D01*
X0015671Y0123055D01*
X0015387Y0123024D01*
X0015104Y0122986D01*
X0014823Y0122941D01*
X0014542Y0122890D01*
X0014262Y0122832D01*
X0013984Y0122767D01*
X0013708Y0122695D01*
X0013434Y0122617D01*
X0013161Y0122532D01*
X0012891Y0122440D01*
X0012623Y0122342D01*
X0012357Y0122238D01*
X0012094Y0122127D01*
X0011834Y0122010D01*
X0011576Y0121887D01*
X0011322Y0121757D01*
X0011071Y0121621D01*
X0010823Y0121480D01*
X0010579Y0121332D01*
X0010338Y0121179D01*
X0010102Y0121019D01*
X0009869Y0120854D01*
X0009640Y0120684D01*
X0009415Y0120508D01*
X0009195Y0120326D01*
X0008979Y0120140D01*
X0008768Y0119948D01*
X0008561Y0119751D01*
X0008359Y0119549D01*
X0008162Y0119342D01*
X0007970Y0119131D01*
X0007784Y0118915D01*
X0007602Y0118695D01*
X0007426Y0118470D01*
X0007256Y0118241D01*
X0007091Y0118008D01*
X0006931Y0117772D01*
X0006778Y0117531D01*
X0006630Y0117287D01*
X0006489Y0117039D01*
X0006353Y0116788D01*
X0006223Y0116534D01*
X0006100Y0116276D01*
X0005983Y0116016D01*
X0005872Y0115753D01*
X0005768Y0115487D01*
X0005670Y0115219D01*
X0005578Y0114949D01*
X0005493Y0114676D01*
X0005415Y0114402D01*
X0005343Y0114126D01*
X0005278Y0113848D01*
X0005220Y0113568D01*
X0005169Y0113287D01*
X0005124Y0113006D01*
X0005086Y0112723D01*
X0005055Y0112439D01*
X0005031Y0112155D01*
X0005014Y0111870D01*
X0005003Y0111584D01*
X0005000Y0111299D01*
X0005000Y0016811D01*
X0005003Y0016526D01*
X0005014Y0016240D01*
X0005031Y0015955D01*
X0005055Y0015671D01*
X0005086Y0015387D01*
X0005124Y0015104D01*
X0005169Y0014823D01*
X0005220Y0014542D01*
X0005278Y0014262D01*
X0005343Y0013984D01*
X0005415Y0013708D01*
X0005493Y0013434D01*
X0005578Y0013161D01*
X0005670Y0012891D01*
X0005768Y0012623D01*
X0005872Y0012357D01*
X0005983Y0012094D01*
X0006100Y0011834D01*
X0006223Y0011576D01*
X0006353Y0011322D01*
X0006489Y0011071D01*
X0006630Y0010823D01*
X0006778Y0010579D01*
X0006931Y0010338D01*
X0007091Y0010102D01*
X0007256Y0009869D01*
X0007426Y0009640D01*
X0007602Y0009415D01*
X0007784Y0009195D01*
X0007970Y0008979D01*
X0008162Y0008768D01*
X0008359Y0008561D01*
X0008561Y0008359D01*
X0008768Y0008162D01*
X0008979Y0007970D01*
X0009195Y0007784D01*
X0009415Y0007602D01*
X0009640Y0007426D01*
X0009869Y0007256D01*
X0010102Y0007091D01*
X0010338Y0006931D01*
X0010579Y0006778D01*
X0010823Y0006630D01*
X0011071Y0006489D01*
X0011322Y0006353D01*
X0011576Y0006223D01*
X0011834Y0006100D01*
X0012094Y0005983D01*
X0012357Y0005872D01*
X0012623Y0005768D01*
X0012891Y0005670D01*
X0013161Y0005578D01*
X0013434Y0005493D01*
X0013708Y0005415D01*
X0013984Y0005343D01*
X0014262Y0005278D01*
X0014542Y0005220D01*
X0014823Y0005169D01*
X0015104Y0005124D01*
X0015387Y0005086D01*
X0015671Y0005055D01*
X0015955Y0005031D01*
X0016240Y0005014D01*
X0016526Y0005003D01*
X0016811Y0005000D01*
X0013268Y0018780D02*
X0013270Y0018928D01*
X0013276Y0019076D01*
X0013286Y0019224D01*
X0013300Y0019371D01*
X0013318Y0019518D01*
X0013339Y0019664D01*
X0013365Y0019810D01*
X0013395Y0019955D01*
X0013428Y0020099D01*
X0013466Y0020242D01*
X0013507Y0020384D01*
X0013552Y0020525D01*
X0013600Y0020665D01*
X0013653Y0020804D01*
X0013709Y0020941D01*
X0013769Y0021076D01*
X0013832Y0021210D01*
X0013899Y0021342D01*
X0013970Y0021472D01*
X0014044Y0021600D01*
X0014121Y0021726D01*
X0014202Y0021850D01*
X0014286Y0021972D01*
X0014373Y0022091D01*
X0014464Y0022208D01*
X0014558Y0022323D01*
X0014654Y0022435D01*
X0014754Y0022545D01*
X0014856Y0022651D01*
X0014962Y0022755D01*
X0015070Y0022856D01*
X0015181Y0022954D01*
X0015294Y0023050D01*
X0015410Y0023142D01*
X0015528Y0023231D01*
X0015649Y0023316D01*
X0015772Y0023399D01*
X0015897Y0023478D01*
X0016024Y0023554D01*
X0016153Y0023626D01*
X0016284Y0023695D01*
X0016417Y0023760D01*
X0016552Y0023821D01*
X0016688Y0023879D01*
X0016825Y0023934D01*
X0016964Y0023984D01*
X0017105Y0024031D01*
X0017246Y0024074D01*
X0017389Y0024114D01*
X0017533Y0024149D01*
X0017677Y0024181D01*
X0017823Y0024208D01*
X0017969Y0024232D01*
X0018116Y0024252D01*
X0018263Y0024268D01*
X0018410Y0024280D01*
X0018558Y0024288D01*
X0018706Y0024292D01*
X0018854Y0024292D01*
X0019002Y0024288D01*
X0019150Y0024280D01*
X0019297Y0024268D01*
X0019444Y0024252D01*
X0019591Y0024232D01*
X0019737Y0024208D01*
X0019883Y0024181D01*
X0020027Y0024149D01*
X0020171Y0024114D01*
X0020314Y0024074D01*
X0020455Y0024031D01*
X0020596Y0023984D01*
X0020735Y0023934D01*
X0020872Y0023879D01*
X0021008Y0023821D01*
X0021143Y0023760D01*
X0021276Y0023695D01*
X0021407Y0023626D01*
X0021536Y0023554D01*
X0021663Y0023478D01*
X0021788Y0023399D01*
X0021911Y0023316D01*
X0022032Y0023231D01*
X0022150Y0023142D01*
X0022266Y0023050D01*
X0022379Y0022954D01*
X0022490Y0022856D01*
X0022598Y0022755D01*
X0022704Y0022651D01*
X0022806Y0022545D01*
X0022906Y0022435D01*
X0023002Y0022323D01*
X0023096Y0022208D01*
X0023187Y0022091D01*
X0023274Y0021972D01*
X0023358Y0021850D01*
X0023439Y0021726D01*
X0023516Y0021600D01*
X0023590Y0021472D01*
X0023661Y0021342D01*
X0023728Y0021210D01*
X0023791Y0021076D01*
X0023851Y0020941D01*
X0023907Y0020804D01*
X0023960Y0020665D01*
X0024008Y0020525D01*
X0024053Y0020384D01*
X0024094Y0020242D01*
X0024132Y0020099D01*
X0024165Y0019955D01*
X0024195Y0019810D01*
X0024221Y0019664D01*
X0024242Y0019518D01*
X0024260Y0019371D01*
X0024274Y0019224D01*
X0024284Y0019076D01*
X0024290Y0018928D01*
X0024292Y0018780D01*
X0024290Y0018632D01*
X0024284Y0018484D01*
X0024274Y0018336D01*
X0024260Y0018189D01*
X0024242Y0018042D01*
X0024221Y0017896D01*
X0024195Y0017750D01*
X0024165Y0017605D01*
X0024132Y0017461D01*
X0024094Y0017318D01*
X0024053Y0017176D01*
X0024008Y0017035D01*
X0023960Y0016895D01*
X0023907Y0016756D01*
X0023851Y0016619D01*
X0023791Y0016484D01*
X0023728Y0016350D01*
X0023661Y0016218D01*
X0023590Y0016088D01*
X0023516Y0015960D01*
X0023439Y0015834D01*
X0023358Y0015710D01*
X0023274Y0015588D01*
X0023187Y0015469D01*
X0023096Y0015352D01*
X0023002Y0015237D01*
X0022906Y0015125D01*
X0022806Y0015015D01*
X0022704Y0014909D01*
X0022598Y0014805D01*
X0022490Y0014704D01*
X0022379Y0014606D01*
X0022266Y0014510D01*
X0022150Y0014418D01*
X0022032Y0014329D01*
X0021911Y0014244D01*
X0021788Y0014161D01*
X0021663Y0014082D01*
X0021536Y0014006D01*
X0021407Y0013934D01*
X0021276Y0013865D01*
X0021143Y0013800D01*
X0021008Y0013739D01*
X0020872Y0013681D01*
X0020735Y0013626D01*
X0020596Y0013576D01*
X0020455Y0013529D01*
X0020314Y0013486D01*
X0020171Y0013446D01*
X0020027Y0013411D01*
X0019883Y0013379D01*
X0019737Y0013352D01*
X0019591Y0013328D01*
X0019444Y0013308D01*
X0019297Y0013292D01*
X0019150Y0013280D01*
X0019002Y0013272D01*
X0018854Y0013268D01*
X0018706Y0013268D01*
X0018558Y0013272D01*
X0018410Y0013280D01*
X0018263Y0013292D01*
X0018116Y0013308D01*
X0017969Y0013328D01*
X0017823Y0013352D01*
X0017677Y0013379D01*
X0017533Y0013411D01*
X0017389Y0013446D01*
X0017246Y0013486D01*
X0017105Y0013529D01*
X0016964Y0013576D01*
X0016825Y0013626D01*
X0016688Y0013681D01*
X0016552Y0013739D01*
X0016417Y0013800D01*
X0016284Y0013865D01*
X0016153Y0013934D01*
X0016024Y0014006D01*
X0015897Y0014082D01*
X0015772Y0014161D01*
X0015649Y0014244D01*
X0015528Y0014329D01*
X0015410Y0014418D01*
X0015294Y0014510D01*
X0015181Y0014606D01*
X0015070Y0014704D01*
X0014962Y0014805D01*
X0014856Y0014909D01*
X0014754Y0015015D01*
X0014654Y0015125D01*
X0014558Y0015237D01*
X0014464Y0015352D01*
X0014373Y0015469D01*
X0014286Y0015588D01*
X0014202Y0015710D01*
X0014121Y0015834D01*
X0014044Y0015960D01*
X0013970Y0016088D01*
X0013899Y0016218D01*
X0013832Y0016350D01*
X0013769Y0016484D01*
X0013709Y0016619D01*
X0013653Y0016756D01*
X0013600Y0016895D01*
X0013552Y0017035D01*
X0013507Y0017176D01*
X0013466Y0017318D01*
X0013428Y0017461D01*
X0013395Y0017605D01*
X0013365Y0017750D01*
X0013339Y0017896D01*
X0013318Y0018042D01*
X0013300Y0018189D01*
X0013286Y0018336D01*
X0013276Y0018484D01*
X0013270Y0018632D01*
X0013268Y0018780D01*
X0013268Y0109331D02*
X0013270Y0109479D01*
X0013276Y0109627D01*
X0013286Y0109775D01*
X0013300Y0109922D01*
X0013318Y0110069D01*
X0013339Y0110215D01*
X0013365Y0110361D01*
X0013395Y0110506D01*
X0013428Y0110650D01*
X0013466Y0110793D01*
X0013507Y0110935D01*
X0013552Y0111076D01*
X0013600Y0111216D01*
X0013653Y0111355D01*
X0013709Y0111492D01*
X0013769Y0111627D01*
X0013832Y0111761D01*
X0013899Y0111893D01*
X0013970Y0112023D01*
X0014044Y0112151D01*
X0014121Y0112277D01*
X0014202Y0112401D01*
X0014286Y0112523D01*
X0014373Y0112642D01*
X0014464Y0112759D01*
X0014558Y0112874D01*
X0014654Y0112986D01*
X0014754Y0113096D01*
X0014856Y0113202D01*
X0014962Y0113306D01*
X0015070Y0113407D01*
X0015181Y0113505D01*
X0015294Y0113601D01*
X0015410Y0113693D01*
X0015528Y0113782D01*
X0015649Y0113867D01*
X0015772Y0113950D01*
X0015897Y0114029D01*
X0016024Y0114105D01*
X0016153Y0114177D01*
X0016284Y0114246D01*
X0016417Y0114311D01*
X0016552Y0114372D01*
X0016688Y0114430D01*
X0016825Y0114485D01*
X0016964Y0114535D01*
X0017105Y0114582D01*
X0017246Y0114625D01*
X0017389Y0114665D01*
X0017533Y0114700D01*
X0017677Y0114732D01*
X0017823Y0114759D01*
X0017969Y0114783D01*
X0018116Y0114803D01*
X0018263Y0114819D01*
X0018410Y0114831D01*
X0018558Y0114839D01*
X0018706Y0114843D01*
X0018854Y0114843D01*
X0019002Y0114839D01*
X0019150Y0114831D01*
X0019297Y0114819D01*
X0019444Y0114803D01*
X0019591Y0114783D01*
X0019737Y0114759D01*
X0019883Y0114732D01*
X0020027Y0114700D01*
X0020171Y0114665D01*
X0020314Y0114625D01*
X0020455Y0114582D01*
X0020596Y0114535D01*
X0020735Y0114485D01*
X0020872Y0114430D01*
X0021008Y0114372D01*
X0021143Y0114311D01*
X0021276Y0114246D01*
X0021407Y0114177D01*
X0021536Y0114105D01*
X0021663Y0114029D01*
X0021788Y0113950D01*
X0021911Y0113867D01*
X0022032Y0113782D01*
X0022150Y0113693D01*
X0022266Y0113601D01*
X0022379Y0113505D01*
X0022490Y0113407D01*
X0022598Y0113306D01*
X0022704Y0113202D01*
X0022806Y0113096D01*
X0022906Y0112986D01*
X0023002Y0112874D01*
X0023096Y0112759D01*
X0023187Y0112642D01*
X0023274Y0112523D01*
X0023358Y0112401D01*
X0023439Y0112277D01*
X0023516Y0112151D01*
X0023590Y0112023D01*
X0023661Y0111893D01*
X0023728Y0111761D01*
X0023791Y0111627D01*
X0023851Y0111492D01*
X0023907Y0111355D01*
X0023960Y0111216D01*
X0024008Y0111076D01*
X0024053Y0110935D01*
X0024094Y0110793D01*
X0024132Y0110650D01*
X0024165Y0110506D01*
X0024195Y0110361D01*
X0024221Y0110215D01*
X0024242Y0110069D01*
X0024260Y0109922D01*
X0024274Y0109775D01*
X0024284Y0109627D01*
X0024290Y0109479D01*
X0024292Y0109331D01*
X0024290Y0109183D01*
X0024284Y0109035D01*
X0024274Y0108887D01*
X0024260Y0108740D01*
X0024242Y0108593D01*
X0024221Y0108447D01*
X0024195Y0108301D01*
X0024165Y0108156D01*
X0024132Y0108012D01*
X0024094Y0107869D01*
X0024053Y0107727D01*
X0024008Y0107586D01*
X0023960Y0107446D01*
X0023907Y0107307D01*
X0023851Y0107170D01*
X0023791Y0107035D01*
X0023728Y0106901D01*
X0023661Y0106769D01*
X0023590Y0106639D01*
X0023516Y0106511D01*
X0023439Y0106385D01*
X0023358Y0106261D01*
X0023274Y0106139D01*
X0023187Y0106020D01*
X0023096Y0105903D01*
X0023002Y0105788D01*
X0022906Y0105676D01*
X0022806Y0105566D01*
X0022704Y0105460D01*
X0022598Y0105356D01*
X0022490Y0105255D01*
X0022379Y0105157D01*
X0022266Y0105061D01*
X0022150Y0104969D01*
X0022032Y0104880D01*
X0021911Y0104795D01*
X0021788Y0104712D01*
X0021663Y0104633D01*
X0021536Y0104557D01*
X0021407Y0104485D01*
X0021276Y0104416D01*
X0021143Y0104351D01*
X0021008Y0104290D01*
X0020872Y0104232D01*
X0020735Y0104177D01*
X0020596Y0104127D01*
X0020455Y0104080D01*
X0020314Y0104037D01*
X0020171Y0103997D01*
X0020027Y0103962D01*
X0019883Y0103930D01*
X0019737Y0103903D01*
X0019591Y0103879D01*
X0019444Y0103859D01*
X0019297Y0103843D01*
X0019150Y0103831D01*
X0019002Y0103823D01*
X0018854Y0103819D01*
X0018706Y0103819D01*
X0018558Y0103823D01*
X0018410Y0103831D01*
X0018263Y0103843D01*
X0018116Y0103859D01*
X0017969Y0103879D01*
X0017823Y0103903D01*
X0017677Y0103930D01*
X0017533Y0103962D01*
X0017389Y0103997D01*
X0017246Y0104037D01*
X0017105Y0104080D01*
X0016964Y0104127D01*
X0016825Y0104177D01*
X0016688Y0104232D01*
X0016552Y0104290D01*
X0016417Y0104351D01*
X0016284Y0104416D01*
X0016153Y0104485D01*
X0016024Y0104557D01*
X0015897Y0104633D01*
X0015772Y0104712D01*
X0015649Y0104795D01*
X0015528Y0104880D01*
X0015410Y0104969D01*
X0015294Y0105061D01*
X0015181Y0105157D01*
X0015070Y0105255D01*
X0014962Y0105356D01*
X0014856Y0105460D01*
X0014754Y0105566D01*
X0014654Y0105676D01*
X0014558Y0105788D01*
X0014464Y0105903D01*
X0014373Y0106020D01*
X0014286Y0106139D01*
X0014202Y0106261D01*
X0014121Y0106385D01*
X0014044Y0106511D01*
X0013970Y0106639D01*
X0013899Y0106769D01*
X0013832Y0106901D01*
X0013769Y0107035D01*
X0013709Y0107170D01*
X0013653Y0107307D01*
X0013600Y0107446D01*
X0013552Y0107586D01*
X0013507Y0107727D01*
X0013466Y0107869D01*
X0013428Y0108012D01*
X0013395Y0108156D01*
X0013365Y0108301D01*
X0013339Y0108447D01*
X0013318Y0108593D01*
X0013300Y0108740D01*
X0013286Y0108887D01*
X0013276Y0109035D01*
X0013270Y0109183D01*
X0013268Y0109331D01*
X0241614Y0109331D02*
X0241616Y0109479D01*
X0241622Y0109627D01*
X0241632Y0109775D01*
X0241646Y0109922D01*
X0241664Y0110069D01*
X0241685Y0110215D01*
X0241711Y0110361D01*
X0241741Y0110506D01*
X0241774Y0110650D01*
X0241812Y0110793D01*
X0241853Y0110935D01*
X0241898Y0111076D01*
X0241946Y0111216D01*
X0241999Y0111355D01*
X0242055Y0111492D01*
X0242115Y0111627D01*
X0242178Y0111761D01*
X0242245Y0111893D01*
X0242316Y0112023D01*
X0242390Y0112151D01*
X0242467Y0112277D01*
X0242548Y0112401D01*
X0242632Y0112523D01*
X0242719Y0112642D01*
X0242810Y0112759D01*
X0242904Y0112874D01*
X0243000Y0112986D01*
X0243100Y0113096D01*
X0243202Y0113202D01*
X0243308Y0113306D01*
X0243416Y0113407D01*
X0243527Y0113505D01*
X0243640Y0113601D01*
X0243756Y0113693D01*
X0243874Y0113782D01*
X0243995Y0113867D01*
X0244118Y0113950D01*
X0244243Y0114029D01*
X0244370Y0114105D01*
X0244499Y0114177D01*
X0244630Y0114246D01*
X0244763Y0114311D01*
X0244898Y0114372D01*
X0245034Y0114430D01*
X0245171Y0114485D01*
X0245310Y0114535D01*
X0245451Y0114582D01*
X0245592Y0114625D01*
X0245735Y0114665D01*
X0245879Y0114700D01*
X0246023Y0114732D01*
X0246169Y0114759D01*
X0246315Y0114783D01*
X0246462Y0114803D01*
X0246609Y0114819D01*
X0246756Y0114831D01*
X0246904Y0114839D01*
X0247052Y0114843D01*
X0247200Y0114843D01*
X0247348Y0114839D01*
X0247496Y0114831D01*
X0247643Y0114819D01*
X0247790Y0114803D01*
X0247937Y0114783D01*
X0248083Y0114759D01*
X0248229Y0114732D01*
X0248373Y0114700D01*
X0248517Y0114665D01*
X0248660Y0114625D01*
X0248801Y0114582D01*
X0248942Y0114535D01*
X0249081Y0114485D01*
X0249218Y0114430D01*
X0249354Y0114372D01*
X0249489Y0114311D01*
X0249622Y0114246D01*
X0249753Y0114177D01*
X0249882Y0114105D01*
X0250009Y0114029D01*
X0250134Y0113950D01*
X0250257Y0113867D01*
X0250378Y0113782D01*
X0250496Y0113693D01*
X0250612Y0113601D01*
X0250725Y0113505D01*
X0250836Y0113407D01*
X0250944Y0113306D01*
X0251050Y0113202D01*
X0251152Y0113096D01*
X0251252Y0112986D01*
X0251348Y0112874D01*
X0251442Y0112759D01*
X0251533Y0112642D01*
X0251620Y0112523D01*
X0251704Y0112401D01*
X0251785Y0112277D01*
X0251862Y0112151D01*
X0251936Y0112023D01*
X0252007Y0111893D01*
X0252074Y0111761D01*
X0252137Y0111627D01*
X0252197Y0111492D01*
X0252253Y0111355D01*
X0252306Y0111216D01*
X0252354Y0111076D01*
X0252399Y0110935D01*
X0252440Y0110793D01*
X0252478Y0110650D01*
X0252511Y0110506D01*
X0252541Y0110361D01*
X0252567Y0110215D01*
X0252588Y0110069D01*
X0252606Y0109922D01*
X0252620Y0109775D01*
X0252630Y0109627D01*
X0252636Y0109479D01*
X0252638Y0109331D01*
X0252636Y0109183D01*
X0252630Y0109035D01*
X0252620Y0108887D01*
X0252606Y0108740D01*
X0252588Y0108593D01*
X0252567Y0108447D01*
X0252541Y0108301D01*
X0252511Y0108156D01*
X0252478Y0108012D01*
X0252440Y0107869D01*
X0252399Y0107727D01*
X0252354Y0107586D01*
X0252306Y0107446D01*
X0252253Y0107307D01*
X0252197Y0107170D01*
X0252137Y0107035D01*
X0252074Y0106901D01*
X0252007Y0106769D01*
X0251936Y0106639D01*
X0251862Y0106511D01*
X0251785Y0106385D01*
X0251704Y0106261D01*
X0251620Y0106139D01*
X0251533Y0106020D01*
X0251442Y0105903D01*
X0251348Y0105788D01*
X0251252Y0105676D01*
X0251152Y0105566D01*
X0251050Y0105460D01*
X0250944Y0105356D01*
X0250836Y0105255D01*
X0250725Y0105157D01*
X0250612Y0105061D01*
X0250496Y0104969D01*
X0250378Y0104880D01*
X0250257Y0104795D01*
X0250134Y0104712D01*
X0250009Y0104633D01*
X0249882Y0104557D01*
X0249753Y0104485D01*
X0249622Y0104416D01*
X0249489Y0104351D01*
X0249354Y0104290D01*
X0249218Y0104232D01*
X0249081Y0104177D01*
X0248942Y0104127D01*
X0248801Y0104080D01*
X0248660Y0104037D01*
X0248517Y0103997D01*
X0248373Y0103962D01*
X0248229Y0103930D01*
X0248083Y0103903D01*
X0247937Y0103879D01*
X0247790Y0103859D01*
X0247643Y0103843D01*
X0247496Y0103831D01*
X0247348Y0103823D01*
X0247200Y0103819D01*
X0247052Y0103819D01*
X0246904Y0103823D01*
X0246756Y0103831D01*
X0246609Y0103843D01*
X0246462Y0103859D01*
X0246315Y0103879D01*
X0246169Y0103903D01*
X0246023Y0103930D01*
X0245879Y0103962D01*
X0245735Y0103997D01*
X0245592Y0104037D01*
X0245451Y0104080D01*
X0245310Y0104127D01*
X0245171Y0104177D01*
X0245034Y0104232D01*
X0244898Y0104290D01*
X0244763Y0104351D01*
X0244630Y0104416D01*
X0244499Y0104485D01*
X0244370Y0104557D01*
X0244243Y0104633D01*
X0244118Y0104712D01*
X0243995Y0104795D01*
X0243874Y0104880D01*
X0243756Y0104969D01*
X0243640Y0105061D01*
X0243527Y0105157D01*
X0243416Y0105255D01*
X0243308Y0105356D01*
X0243202Y0105460D01*
X0243100Y0105566D01*
X0243000Y0105676D01*
X0242904Y0105788D01*
X0242810Y0105903D01*
X0242719Y0106020D01*
X0242632Y0106139D01*
X0242548Y0106261D01*
X0242467Y0106385D01*
X0242390Y0106511D01*
X0242316Y0106639D01*
X0242245Y0106769D01*
X0242178Y0106901D01*
X0242115Y0107035D01*
X0242055Y0107170D01*
X0241999Y0107307D01*
X0241946Y0107446D01*
X0241898Y0107586D01*
X0241853Y0107727D01*
X0241812Y0107869D01*
X0241774Y0108012D01*
X0241741Y0108156D01*
X0241711Y0108301D01*
X0241685Y0108447D01*
X0241664Y0108593D01*
X0241646Y0108740D01*
X0241632Y0108887D01*
X0241622Y0109035D01*
X0241616Y0109183D01*
X0241614Y0109331D01*
X0241614Y0018780D02*
X0241616Y0018928D01*
X0241622Y0019076D01*
X0241632Y0019224D01*
X0241646Y0019371D01*
X0241664Y0019518D01*
X0241685Y0019664D01*
X0241711Y0019810D01*
X0241741Y0019955D01*
X0241774Y0020099D01*
X0241812Y0020242D01*
X0241853Y0020384D01*
X0241898Y0020525D01*
X0241946Y0020665D01*
X0241999Y0020804D01*
X0242055Y0020941D01*
X0242115Y0021076D01*
X0242178Y0021210D01*
X0242245Y0021342D01*
X0242316Y0021472D01*
X0242390Y0021600D01*
X0242467Y0021726D01*
X0242548Y0021850D01*
X0242632Y0021972D01*
X0242719Y0022091D01*
X0242810Y0022208D01*
X0242904Y0022323D01*
X0243000Y0022435D01*
X0243100Y0022545D01*
X0243202Y0022651D01*
X0243308Y0022755D01*
X0243416Y0022856D01*
X0243527Y0022954D01*
X0243640Y0023050D01*
X0243756Y0023142D01*
X0243874Y0023231D01*
X0243995Y0023316D01*
X0244118Y0023399D01*
X0244243Y0023478D01*
X0244370Y0023554D01*
X0244499Y0023626D01*
X0244630Y0023695D01*
X0244763Y0023760D01*
X0244898Y0023821D01*
X0245034Y0023879D01*
X0245171Y0023934D01*
X0245310Y0023984D01*
X0245451Y0024031D01*
X0245592Y0024074D01*
X0245735Y0024114D01*
X0245879Y0024149D01*
X0246023Y0024181D01*
X0246169Y0024208D01*
X0246315Y0024232D01*
X0246462Y0024252D01*
X0246609Y0024268D01*
X0246756Y0024280D01*
X0246904Y0024288D01*
X0247052Y0024292D01*
X0247200Y0024292D01*
X0247348Y0024288D01*
X0247496Y0024280D01*
X0247643Y0024268D01*
X0247790Y0024252D01*
X0247937Y0024232D01*
X0248083Y0024208D01*
X0248229Y0024181D01*
X0248373Y0024149D01*
X0248517Y0024114D01*
X0248660Y0024074D01*
X0248801Y0024031D01*
X0248942Y0023984D01*
X0249081Y0023934D01*
X0249218Y0023879D01*
X0249354Y0023821D01*
X0249489Y0023760D01*
X0249622Y0023695D01*
X0249753Y0023626D01*
X0249882Y0023554D01*
X0250009Y0023478D01*
X0250134Y0023399D01*
X0250257Y0023316D01*
X0250378Y0023231D01*
X0250496Y0023142D01*
X0250612Y0023050D01*
X0250725Y0022954D01*
X0250836Y0022856D01*
X0250944Y0022755D01*
X0251050Y0022651D01*
X0251152Y0022545D01*
X0251252Y0022435D01*
X0251348Y0022323D01*
X0251442Y0022208D01*
X0251533Y0022091D01*
X0251620Y0021972D01*
X0251704Y0021850D01*
X0251785Y0021726D01*
X0251862Y0021600D01*
X0251936Y0021472D01*
X0252007Y0021342D01*
X0252074Y0021210D01*
X0252137Y0021076D01*
X0252197Y0020941D01*
X0252253Y0020804D01*
X0252306Y0020665D01*
X0252354Y0020525D01*
X0252399Y0020384D01*
X0252440Y0020242D01*
X0252478Y0020099D01*
X0252511Y0019955D01*
X0252541Y0019810D01*
X0252567Y0019664D01*
X0252588Y0019518D01*
X0252606Y0019371D01*
X0252620Y0019224D01*
X0252630Y0019076D01*
X0252636Y0018928D01*
X0252638Y0018780D01*
X0252636Y0018632D01*
X0252630Y0018484D01*
X0252620Y0018336D01*
X0252606Y0018189D01*
X0252588Y0018042D01*
X0252567Y0017896D01*
X0252541Y0017750D01*
X0252511Y0017605D01*
X0252478Y0017461D01*
X0252440Y0017318D01*
X0252399Y0017176D01*
X0252354Y0017035D01*
X0252306Y0016895D01*
X0252253Y0016756D01*
X0252197Y0016619D01*
X0252137Y0016484D01*
X0252074Y0016350D01*
X0252007Y0016218D01*
X0251936Y0016088D01*
X0251862Y0015960D01*
X0251785Y0015834D01*
X0251704Y0015710D01*
X0251620Y0015588D01*
X0251533Y0015469D01*
X0251442Y0015352D01*
X0251348Y0015237D01*
X0251252Y0015125D01*
X0251152Y0015015D01*
X0251050Y0014909D01*
X0250944Y0014805D01*
X0250836Y0014704D01*
X0250725Y0014606D01*
X0250612Y0014510D01*
X0250496Y0014418D01*
X0250378Y0014329D01*
X0250257Y0014244D01*
X0250134Y0014161D01*
X0250009Y0014082D01*
X0249882Y0014006D01*
X0249753Y0013934D01*
X0249622Y0013865D01*
X0249489Y0013800D01*
X0249354Y0013739D01*
X0249218Y0013681D01*
X0249081Y0013626D01*
X0248942Y0013576D01*
X0248801Y0013529D01*
X0248660Y0013486D01*
X0248517Y0013446D01*
X0248373Y0013411D01*
X0248229Y0013379D01*
X0248083Y0013352D01*
X0247937Y0013328D01*
X0247790Y0013308D01*
X0247643Y0013292D01*
X0247496Y0013280D01*
X0247348Y0013272D01*
X0247200Y0013268D01*
X0247052Y0013268D01*
X0246904Y0013272D01*
X0246756Y0013280D01*
X0246609Y0013292D01*
X0246462Y0013308D01*
X0246315Y0013328D01*
X0246169Y0013352D01*
X0246023Y0013379D01*
X0245879Y0013411D01*
X0245735Y0013446D01*
X0245592Y0013486D01*
X0245451Y0013529D01*
X0245310Y0013576D01*
X0245171Y0013626D01*
X0245034Y0013681D01*
X0244898Y0013739D01*
X0244763Y0013800D01*
X0244630Y0013865D01*
X0244499Y0013934D01*
X0244370Y0014006D01*
X0244243Y0014082D01*
X0244118Y0014161D01*
X0243995Y0014244D01*
X0243874Y0014329D01*
X0243756Y0014418D01*
X0243640Y0014510D01*
X0243527Y0014606D01*
X0243416Y0014704D01*
X0243308Y0014805D01*
X0243202Y0014909D01*
X0243100Y0015015D01*
X0243000Y0015125D01*
X0242904Y0015237D01*
X0242810Y0015352D01*
X0242719Y0015469D01*
X0242632Y0015588D01*
X0242548Y0015710D01*
X0242467Y0015834D01*
X0242390Y0015960D01*
X0242316Y0016088D01*
X0242245Y0016218D01*
X0242178Y0016350D01*
X0242115Y0016484D01*
X0242055Y0016619D01*
X0241999Y0016756D01*
X0241946Y0016895D01*
X0241898Y0017035D01*
X0241853Y0017176D01*
X0241812Y0017318D01*
X0241774Y0017461D01*
X0241741Y0017605D01*
X0241711Y0017750D01*
X0241685Y0017896D01*
X0241664Y0018042D01*
X0241646Y0018189D01*
X0241632Y0018336D01*
X0241622Y0018484D01*
X0241616Y0018632D01*
X0241614Y0018780D01*
M02*
