%
M48
M72
T01C0.02400
T02C0.03543
T03C0.04000
T04C0.11024
%
T01
X101100Y66000
X113700Y60600
T02
X75000Y85000
X65000Y85000
X55000Y85000
T03
X37835Y114016
X47835Y114016
X57835Y114016
X67835Y114016
X77835Y114016
X87835Y114016
X97835Y114016
X107835Y114016
X117835Y114016
X127835Y114016
X137835Y114016
X147835Y114016
X157835Y114016
X167835Y114016
X177835Y114016
X187835Y114016
X197835Y114016
X207835Y114016
X217835Y114016
X227835Y114016
X227835Y104016
X217835Y104016
X207835Y104016
X197835Y104016
X187835Y104016
X177835Y104016
X167835Y104016
X157835Y104016
X147835Y104016
X137835Y104016
X127835Y104016
X117835Y104016
X107835Y104016
X97835Y104016
X87835Y104016
X77835Y104016
X67835Y104016
X57835Y104016
X47835Y104016
X37835Y104016
X46100Y27200
X63900Y27200
X96100Y27200
X113900Y27200
X146100Y27200
X163900Y27200
X196100Y27200
X213900Y27200
X213900Y52800
X196100Y52800
X163900Y52800
X146100Y52800
X113900Y52800
X96100Y52800
X63900Y52800
X46100Y52800
T04
X247126Y18780
X247126Y109331
X18780Y109331
X18780Y18780
M30
